# xmcd CD database file
#
# Track frame offsets:
#	182
#	12535
#	22482
#	33100
#	45165
#	56912
#	69440
#	80312
#	90317
#	104732
#	114190
#	124465
#	134310
#	146152
#
# Disc length: 2129 seconds
#
# Revision: 0
# Processed by: cddbd v1.5.2PL0 Copyright (c) Steve Scherf et al.
# Submitted via: CDex 1.70beta2
#
DISCID=c1084f0e
DTITLE=Nat King Cole - The best of Nat King Cole
DYEAR=1993
DGENRE=Jazz
TTITLE0=Mona Lisa
TTITLE1=Crazy but I'm in love
TTITLE2=Early american
TTITLE3=Darling je vous aime beaucoup
TTITLE4=Love letters
TTITLE5=Unforgettable
TTITLE6=Night lights
TTITLE7=Somebody loves me
TTITLE8=Tea for two
TTITLE9=Till the end of the years
TTITLE10=September song
TTITLE11=Somewhere along the way
TTITLE12=I know what you know
TTITLE13=My foolish heart
EXTD=YEAR: 1993
EXTT0=
EXTT1=
EXTT2=
EXTT3=
EXTT4=
EXTT5=
EXTT6=
EXTT7=
EXTT8=
EXTT9=
EXTT10=
EXTT11=
EXTT12=
EXTT13=
PLAYORDER=
